# xmcd
#
# Track frame offsets:
#	150
#	13446
#	34390
#	46000
#	58675
#	74325
#	85536
#	100044
#	116260
#	127087
#	138974
#	149414
#	163204
#	178197
#	192614
#	213078
#	226955
#	239666
#	252344
#
# Disc length: 3536 seconds
#
# Revision: 0
# Processed by: cddbd v1.5.2PL0 Copyright (c) Steve Scherf et al.
# Submitted via: EZCDAudioConverter 2.8.0.1
#
DISCID=190dce13
DTITLE=Аида Ведищева - Лучшее CD1
DYEAR=2015
DGENRE=Советская песня
TTITLE0=Лесной олень
TTITLE1=Помоги мне
TTITLE2=Дорожная
TTITLE3=Арифметика
TTITLE4=Гололед
TTITLE5=Песня о весне
TTITLE6=Товарищ
TTITLE7=ПРосто возраст мой такой
TTITLE8=НАйди меня
TTITLE9=Чёт или нечет
TTITLE10=Черный кофе
TTITLE11=Смешной паренёк
TTITLE12=Наджеда, Вера, любовь
TTITLE13=Корабль воспоминаний
TTITLE14=Отзовись
TTITLE15=Загадай желание
TTITLE16=Любовь не вернуть
TTITLE17=Военные оркестры
TTITLE18=Последние дни уходящего лета
EXTD=
EXTT0=
EXTT1=
EXTT2=
EXTT3=
EXTT4=
EXTT5=
EXTT6=
EXTT7=
EXTT8=
EXTT9=
EXTT10=
EXTT11=
EXTT12=
EXTT13=
EXTT14=
EXTT15=
EXTT16=
EXTT17=
EXTT18=
PLAYORDER=
